HIERARCHY
ROOT Hips
{
	OFFSET 0.00000 0.00000 0.00000
	CHANNELS 6 Xposition Yposition Zposition Yrotation Zrotation Xrotation 
	JOINT Lumbar
	{
		OFFSET 0 0 0
		CHANNELS 3 Zrotation Xrotation Yrotation
		JOINT Neck
		{
			OFFSET 0.00 0.2701 0.00
			CHANNELS 3 Zrotation Xrotation Yrotation
			End Site
			{
				OFFSET 0.00 0.1379 0.00
			}
		}
		JOINT RightShoulder
		{
			OFFSET 0.0119 0.2289 0.1181
			CHANNELS 3 Zrotation Xrotation Yrotation
			JOINT RightElbow
			{
				OFFSET 0.00 -0.1475 0.00
				CHANNELS 2 Zrotation Yrotation
				JOINT RightWrist
				{
					OFFSET 0.00 -0.1605 0.00
					CHANNELS 2 Zrotation Xrotation
					End Site
					{
						OFFSET 0.0040 -0.1068 0.0006
					}
				}
			}
		}
		JOINT LeftShoulder
		{
			OFFSET 0.0119 0.2289 -0.1181
			CHANNELS 3 Zrotation Xrotation Yrotation
			JOINT LeftElbow
			{
				OFFSET 0.00 -0.1475 0.00
				CHANNELS 2 Zrotation Yrotation
				JOINT LeftWrist
				{
					OFFSET 0.00 -0.1605 0.00
					CHANNELS 2 Zrotation Xrotation
					End Site
					{
						OFFSET 0.0040 -0.1068 -0.0006
					}
				}
			}
		}
	}
	JOINT RightHip
	{
		OFFSET 0.0316 -0.0424 0.0458
		CHANNELS 3 Zrotation Xrotation Yrotation
		JOINT RightKnee
		{
			OFFSET 0.00 -0.2438 0.00
			CHANNELS 1 Zrotation
			JOINT RightAnkle
			{
				OFFSET 0.00 -0.2449 0.00
				CHANNELS 3 Zrotation Xrotation Yrotation
				End Site
				{
					OFFSET 0.1237 -0.0542 0.0051
				}
			}
		}
	}
	JOINT LeftHip
	{
		OFFSET 0.0316 -0.0424 -0.0458
		CHANNELS 3 Zrotation Xrotation Yrotation
		JOINT LeftKnee
		{
			OFFSET 0.00 -0.2438 0.00
			CHANNELS 1 Zrotation
			JOINT LeftAnkle
			{
				OFFSET 0.00 -0.2449 0.00
				CHANNELS 3 Zrotation Xrotation Yrotation
				End Site
				{
					OFFSET 0.1237 -0.0542 -0.0051
				}
			}
		}
	}
}
MOTION
Frames: 32
Frame Time: 0.02
-0 0.57926 -0 179.43525 0 -3.78401 2.88279 4.06679 -0.50176 -33.8964 1.87687 1.42353 -11.91105 -63.57764 -87.14685 18.26083 58.25883 -33.13433 -0.00234 11.57877 63.31477 81.31113 16.73956 -91.80197 -26.73178 4.53083 -2.83771 4.91726 -13.41825 -8.07309 1.24995 -3.98777 -9.85031 -1.91118 4.7147 4.53625 -5.29736 4.75493 4.46981 7.99292
2e-05 0.57927 -1e-05 179.43526 0 -3.78359 2.89708 4.0571 -0.83547 -33.98321 1.66284 1.71709 -11.81027 -63.54926 -87.14685 18.25673 58.22645 -33.11572 -0.00152 11.6591 63.30548 81.24143 16.75715 -91.76227 -26.69807 4.52087 -2.83642 4.91786 -13.40629 -8.07006 1.25025 -3.98628 -9.855 -1.90917 4.71444 4.52905 -5.29688 4.75229 4.46921 8.00016
4e-05 0.57927 -2e-05 179.43533 0 -3.78314 2.91133 4.0474 -1.16658 -34.06944 1.4505 2.00842 -11.70984 -63.52113 -87.14685 18.25273 58.19471 -33.09704 -0.00068 11.73901 63.2959 81.17078 16.77576 -91.72058 -26.66474 4.51064 -2.83503 4.91841 -13.39447 -8.06724 1.25062 -3.98484 -9.85968 -1.90716 4.71416 4.52183 -5.29636 4.74963 4.4686 8.00737
6e-05 0.57928 -2e-05 179.43565 0 -3.78255 2.92548 4.03764 -1.49031 -34.15401 1.24281 2.29326 -11.61021 -63.49347 -87.14685 18.24941 58.16477 -33.07871 0.00037 11.81761 63.28587 81.10012 16.79498 -91.67279 -26.63213 4.4997 -2.83315 4.91869 -13.38312 -8.06543 1.2513 -3.98362 -9.86435 -1.90534 4.71369 4.51447 -5.29535 4.74673 4.46794 8.01451
8e-05 0.57928 -3e-05 179.43466 0 -3.78265 2.94006 4.02826 -1.85286 -34.24712 1.01046 2.61195 -11.50679 -63.46301 -87.14685 18.24289 58.12478 -33.05948 0.00045 11.90269 63.27923 81.03493 16.80647 -91.66 -26.59507 4.49308 -2.83374 4.92032 -13.36931 -8.05847 1.25037 -3.98128 -9.86901 -1.90275 4.71408 4.50784 -5.2966 4.74495 4.46753 8.02197
0.0001 0.57928 -4e-05 179.43645 0 -3.78132 2.95378 4.01803 -2.13311 -34.32224 0.83054 2.85909 -11.41122 -63.43871 -87.14685 18.24287 58.10642 -33.04152 0.00246 11.97429 63.26472 80.95453 16.83736 -91.5714 -26.5679 4.47697 -2.82919 4.91916 -13.36069 -8.06227 1.25281 -3.98128 -9.87375 -1.90166 4.71273 4.49968 -5.29329 4.74092 4.46662 8.02876
0.00014 0.57928 -3e-05 179.44602 0 -3.77546 2.96483 4.00574 -2.18414 -34.34652 0.79535 2.90507 -11.33778 -63.42967 -87.14685 18.26371 58.1466 -33.03243 0.0113 12.00654 63.23298 80.8582 16.90072 -91.27863 -26.56599 4.43607 -2.80922 4.90932 -13.367 -8.09831 1.26545 -3.98817 -9.87843 -1.90604 4.7058 4.48682 -5.27472 4.72924 4.46402 8.0338
0.00017 0.57928 -3e-05 179.45841 0 -3.76825 2.9751 3.99251 -2.15243 -34.3529 0.8131 2.87955 -11.2722 -63.42719 -87.14686 18.29055 58.20881 -33.02372 0.02188 12.02563 63.19235 80.74082 16.98884 -90.90836 -26.57534 4.38532 -2.78428 4.89683 -13.37843 -8.1448 1.28138 -3.99737 -9.88328 -1.91173 4.69726 4.47243 -5.25198 4.71554 4.46097 8.03814
0.00021 0.57928 -2e-05 179.46943 0 -3.76202 2.98593 3.97958 -2.15997 -34.36824 0.80655 2.88911 -11.2025 -63.4228 -87.14687 18.31286 58.26187 -33.01122 0.03067 12.05209 63.15291 80.61695 17.07785 -90.56936 -26.57972 4.33805 -2.76242 4.88619 -13.38712 -8.18486 1.2952 -4.00523 -9.88827 -1.91597 4.68996 4.45906 -5.2329 4.7037 4.45831 8.04273
0.00024 0.57927 -1e-05 179.48073 0 -3.75424 2.99584 3.96734 -2.16084 -34.38 0.80084 2.88768 -11.13469 -63.41379 -87.14687 18.34301 58.3116 -33.01362 0.04353 12.07251 63.12581 80.56404 17.11055 -90.24574 -26.57977 4.29486 -2.73713 4.87284 -13.39757 -8.23193 1.31148 -4.01428 -9.89232 -1.92377 4.68051 4.44448 -5.20651 4.68794 4.45485 8.04764
0.00028 0.57927 -1e-05 179.49223 0 -3.74934 3.00755 3.95325 -2.15558 -34.39508 0.80619 2.89222 -11.06533 -63.41608 -87.14688 18.35797 58.37308 -32.98553 0.04853 12.10261 63.07049 80.35434 17.27278 -89.87337 -26.59616 4.24101 -2.71777 4.86448 -13.40556 -8.267 1.32357 -4.02143 -9.8984 -1.92454 4.67514 4.43188 -5.19415 4.67981 4.45298 8.05168
0.00032 0.57926 -2e-05 179.50264 0 -3.75301 3.02386 3.93581 -2.15666 -34.42286 0.82686 2.93012 -10.98504 -63.44678 -87.14685 18.33223 58.46587 -32.86925 0.02948 12.15962 62.94177 79.75174 17.73701 -89.37097 -26.61576 4.15857 -2.71632 4.87066 -13.40555 -8.26542 1.32211 -4.02246 -9.90954 -1.90475 4.68159 4.42655 -5.22332 4.69358 4.45529 8.05365
0.00035 0.57924 -4e-05 179.51336 0 -3.75959 3.04215 3.91625 -2.15383 -34.45477 0.85717 2.97655 -10.90352 -63.48866 -87.14681 18.29067 58.5693 -32.723 0.0028 12.22672 62.78374 78.98624 18.34337 -88.82506 -26.65916 4.06611 -2.72095 4.8819 -13.40297 -8.25159 1.31654 -4.02155 -9.92276 -1.87798 4.69217 4.42301 -5.26641 4.71501 4.45925 8.05473
0.00039 0.57923 -6e-05 179.52451 0 -3.76467 3.05989 3.89667 -2.15087 -34.4853 0.88462 3.01953 -10.82604 -63.52641 -87.14678 18.25439 58.6646 -32.59307 -0.01914 12.29209 62.63856 78.27153 18.91293 -88.30824 -26.71677 3.9792 -2.72256 4.89074 -13.40142 -8.244 1.31365 -4.0217 -9.9354 -1.85492 4.70074 4.41768 -5.30194 4.73271 4.46265 8.0561
0.00042 0.57922 -7e-05 179.53321 0 -3.77044 3.07601 3.88121 -2.15326 -34.51299 0.90779 3.05846 -10.73532 -63.56114 -87.14674 18.22571 58.77305 -32.45185 -0.04636 12.34777 62.49819 77.65133 19.35222 -87.74856 -26.66727 3.88748 -2.72502 4.89995 -13.40026 -8.23393 1.30751 -4.02118 -9.94669 -1.82963 4.70979 4.41633 -5.34254 4.75146 4.46527 8.0579
0.00046 0.5792 -0.0001 179.54722 0 -3.7755 3.09611 3.85668 -2.14442 -34.54796 0.94111 3.10849 -10.67031 -63.60379 -87.14671 18.17822 58.85827 -32.32689 -0.06442 12.42266 62.33705 76.79946 20.11354 -87.26986 -26.84869 3.80383 -2.72729 4.9096 -13.39806 -8.22597 1.30705 -4.02155 -9.96103 -1.80731 4.71887 4.40726 -5.37595 4.7698 4.46985 8.05862
0.00049 0.57917 -0.00014 179.57458 0 -3.77782 3.12594 3.80767 -2.10802 -34.60132 1.00302 3.19 -10.68777 -63.673 -87.14673 18.07566 58.8612 -32.25461 -0.05582 12.57999 62.15884 75.31606 21.58408 -87.01796 -27.64171 3.74254 -2.72711 4.91927 -13.38982 -8.22685 1.32391 -4.02499 -9.98553 -1.79492 4.72681 4.37498 -5.38595 4.78559 4.47996 8.05649
0.00053 0.57913 -0.00019 179.60756 0 -3.77934 3.15992 3.74957 -2.06046 -34.66228 1.07403 3.28219 -10.72807 -63.74811 -87.14676 17.95639 58.84383 -32.19923 -0.03788 12.75154 61.95435 73.61068 23.4022 -86.85147 -28.66965 3.69026 -2.72663 4.92922 -13.38132 -8.23026 1.34653 -4.02937 -10.01268 -1.78572 4.73468 4.33493 -5.38829 4.80063 4.4919 8.05336
0.00056 0.57909 -0.00024 179.63864 0 -3.7813 3.19248 3.69564 -2.01675 -34.72009 1.13869 3.36799 -10.75175 -63.81593 -87.1468 17.84879 58.84498 -32.13634 -0.02363 12.8943 61.74057 72.02842 25.15453 -86.65035 -29.60368 3.63543 -2.72664 4.93902 -13.3754 -8.23236 1.36602 -4.03322 -10.037 -1.77509 4.74276 4.29971 -5.39423 4.81566 4.50266 8.05071
0.00061 0.57905 -0.00029 179.66662 0 -3.78307 3.22295 3.6416 -1.97784 -34.77599 1.21303 3.46062 -10.80565 -63.90466 -87.14681 17.72178 58.80456 -32.07338 -0.01109 13.12701 61.61651 70.34855 26.51694 -86.4274 -30.4858 3.57358 -2.72546 4.94906 -13.35899 -8.23451 1.38738 -4.03739 -10.06788 -1.76425 4.75027 4.25999 -5.40009 4.83234 4.5149 8.04775
0.00063 0.57902 -0.00035 179.70284 0 -3.78499 3.259 3.58548 -1.92654 -34.8386 1.2693 3.54134 -10.79715 -63.94975 -87.14682 17.63349 58.84921 -32.01285 0.0062 13.18145 61.29832 68.81891 28.77943 -86.27401 -31.52965 3.52878 -2.7265 4.95861 -13.3644 -8.23758 1.40645 -4.0412 -10.08616 -1.75456 4.75887 4.22659 -5.4042 4.84543 4.52453 8.04542
0.00061 0.57901 -0.00041 179.75672 0 -3.78761 3.30724 3.52754 -1.84257 -34.91008 1.27275 3.5874 -10.64955 -63.88385 -87.14692 17.63875 59.10594 -31.97201 0.04401 12.69302 60.46271 67.77693 33.37895 -86.26635 -32.97908 3.52768 -2.73474 4.96668 -13.43036 -8.24032 1.41626 -4.0434 -10.06497 -1.74842 4.77074 4.22159 -5.40451 4.84761 4.52615 8.04463
0.00056 0.579 -0.00047 179.8194 0 -3.79038 3.36145 3.46753 -1.74692 -34.9898 1.25775 3.62083 -10.42908 -63.77144 -87.1467 17.68698 59.45529 -31.92915 0.08446 12.03556 59.43078 66.88866 38.88212 -86.33185 -34.58032 3.54382 -2.74505 4.97423 -13.51828 -8.24434 1.42391 -4.0453 -10.03171 -1.74315 4.78359 4.22069 -5.40342 4.84635 4.52528 8.04548
0.00053 0.57899 -0.00053 179.88047 0 -3.793 3.41425 3.4074 -1.65729 -35.07045 1.25166 3.65951 -10.21916 -63.67346 -87.14694 17.72696 59.77894 -31.87724 0.11747 11.48363 58.48055 65.9219 44.01405 -86.37939 -36.10065 3.55275 -2.75374 4.98207 -13.59602 -8.24937 1.43351 -4.04759 -10.00664 -1.73675 4.79586 4.21301 -5.40348 4.84741 4.52557 8.04475
0.00049 0.57899 -0.00059 179.9316 0 -3.79593 3.46132 3.35143 -1.56372 -35.13034 1.24382 3.70088 -10.11374 -63.60521 -87.14708 17.71836 60.02793 -31.87149 0.17738 10.80223 57.56004 64.99405 48.99707 -86.36077 -37.67802 3.55884 -2.76521 4.98973 -13.67455 -8.2479 1.43904 -4.04877 -9.97037 -1.73353 4.80889 4.2292 -5.40114 4.84536 4.5252 8.04388
0.00046 0.57898 -0.00065 180.00553 0 -3.79824 3.52215 3.28641 -1.47638 -35.23695 1.23495 3.73318 -9.76249 -63.46242 -87.14579 17.82181 60.46068 -31.76451 0.18146 10.36114 56.53273 64.01163 54.49357 -86.50195 -39.17143 3.57545 -2.77148 4.99758 -13.75674 -8.26008 1.4527 -4.05224 -9.95435 -1.72386 4.82032 4.19252 -5.40354 4.84885 4.52635 8.04826
0.00045 0.57894 -0.0007 180.13948 0 -3.79903 3.61545 3.19731 -1.4037 -35.45651 1.22893 3.746 -8.84001 -63.13733 -87.14883 18.21892 61.32627 -31.41762 0.03328 10.53307 55.24701 62.94843 61.24008 -87.01589 -40.38137 3.61153 -2.76199 5.00658 -13.84293 -8.311 1.48713 -4.06155 -9.99876 -1.69627 4.82953 4.04804 -5.41953 4.8699 4.52545 8.02479
0.00044 0.57889 -0.00075 180.29606 0 -3.79914 3.72311 3.09917 -1.33885 -35.72525 1.22216 3.7494 -7.65567 -62.7361 -87.14521 18.72725 62.38277 -30.96278 -0.17176 10.97101 53.86314 61.80289 68.45806 -87.69613 -41.50477 3.65849 -2.74732 5.01567 -13.93214 -8.37538 1.53022 -4.07327 -10.06363 -1.66212 4.83674 3.845 -5.44036 4.89657 4.52719 8.01238
0.00043 0.57884 -0.00079 180.44297 0 -3.79943 3.82687 3.00494 -1.27388 -35.98082 1.21497 3.7557 -6.53236 -62.36232 -87.14398 19.18959 63.38681 -30.53003 -0.35244 11.34578 52.53156 60.62973 75.42656 -88.33432 -42.67398 3.70399 -2.73569 5.02441 -14.02054 -8.43261 1.57073 -4.08424 -10.11811 -1.63088 4.84319 3.64049 -5.45885 4.91951 4.53255 8.0249
0.00041 0.5788 -0.00085 180.58819 0 -3.80028 3.91986 2.91141 -1.19354 -36.19848 1.21061 3.76827 -5.6517 -62.01898 -87.16067 19.63877 64.25182 -30.20592 -0.52653 11.46585 51.15955 59.74944 82.58533 -88.83781 -43.81441 3.73561 -2.72146 5.0345 -14.10758 -8.49405 1.60531 -4.09372 -10.17685 -1.59999 4.85638 3.54619 -5.47776 4.94654 4.51854 7.91915
0.00041 0.57874 -0.00088 180.74143 0 -3.7998 4.03849 2.8144 -1.14778 -36.50595 1.20008 3.76464 -4.20386 -61.59246 -87.11936 20.13544 65.44733 -29.63639 -0.7282 12.18821 49.8524 58.22124 89.43558 -89.65508 -45.00082 3.79825 -2.71112 5.04173 -14.19756 -8.55014 1.65448 -4.10692 -10.23165 -1.56678 4.85548 3.21905 -5.49711 4.96738 4.54421 8.05213
0.00043 0.57859 -0.00086 180.91737 0 -3.79591 4.22533 2.70916 -1.19078 -37.05502 1.17508 3.72728 -1.25971 -60.97208 -87.0832 20.78492 67.53444 -28.35795 -0.98969 14.45372 48.73711 55.06581 95.41561 -91.34321 -46.25783 3.94678 -2.71513 5.04175 -14.29717 -8.58603 1.74052 -4.12927 -10.27148 -1.5289 4.81221 2.17033 -5.51527 4.96144 4.69036 8.93105
